<svg xmlns="http://www.w3.org/2000/svg" xmlns:xlink="http://www.w3.org/1999/xlink" width="500" zoomAndPan="magnify" viewBox="0 0 375 374.999991" height="500" preserveAspectRatio="xMidYMid meet" version="1.0"><defs><clipPath id="280ef026bf"><path d="M 154.238281 174.65625 L 220.625 174.65625 L 220.625 267.75 L 154.238281 267.75 Z M 154.238281 174.65625 " clip-rule="nonzero"/></clipPath><clipPath id="ed87c13c67"><path d="M 171.488281 174.65625 L 203.375 174.65625 C 212.898438 174.65625 220.625 182.378906 220.625 191.90625 L 220.625 250.3125 C 220.625 259.839844 212.898438 267.5625 203.375 267.5625 L 171.488281 267.5625 C 161.960938 267.5625 154.238281 259.839844 154.238281 250.3125 L 154.238281 191.90625 C 154.238281 182.378906 161.960938 174.65625 171.488281 174.65625 Z M 171.488281 174.65625 " clip-rule="nonzero"/></clipPath><clipPath id="82ba4ab9f5"><path d="M 159.542969 107.4375 L 215.320312 107.4375 L 215.320312 163.210938 L 159.542969 163.210938 Z M 159.542969 107.4375 " clip-rule="nonzero"/></clipPath><clipPath id="f4ac89a2ce"><path d="M 187.429688 107.4375 C 172.027344 107.4375 159.542969 119.921875 159.542969 135.324219 C 159.542969 150.726562 172.027344 163.210938 187.429688 163.210938 C 202.832031 163.210938 215.320312 150.726562 215.320312 135.324219 C 215.320312 119.921875 202.832031 107.4375 187.429688 107.4375 Z M 187.429688 107.4375 " clip-rule="nonzero"/></clipPath><clipPath id="9d7d7071fc"><path d="M 155.460938 0 L 219.398438 0 L 219.398438 63.9375 L 155.460938 63.9375 Z M 155.460938 0 " clip-rule="nonzero"/></clipPath><clipPath id="dc1b81a567"><path d="M 187.429688 0 C 169.773438 0 155.460938 14.3125 155.460938 31.96875 C 155.460938 49.625 169.773438 63.9375 187.429688 63.9375 C 205.085938 63.9375 219.398438 49.625 219.398438 31.96875 C 219.398438 14.3125 205.085938 0 187.429688 0 Z M 187.429688 0 " clip-rule="nonzero"/></clipPath><clipPath id="466cbf624f"><path d="M 155.460938 0 L 219.210938 0 L 219.210938 63.75 L 155.460938 63.75 Z M 155.460938 0 " clip-rule="nonzero"/></clipPath><clipPath id="348c1a6633"><path d="M 187.425781 0 C 169.773438 0 155.460938 14.308594 155.460938 31.960938 C 155.460938 49.617188 169.773438 63.925781 187.425781 63.925781 C 205.078125 63.925781 219.386719 49.617188 219.386719 31.960938 C 219.386719 14.308594 205.078125 0 187.425781 0 Z M 187.425781 0 " clip-rule="nonzero"/></clipPath><clipPath id="1bfd3116f8"><path d="M 159.542969 311.125 L 223.417969 311.125 L 223.417969 375 L 159.542969 375 Z M 159.542969 311.125 " clip-rule="nonzero"/></clipPath><clipPath id="5f179565dc"><path d="M 191.480469 311.125 C 173.84375 311.125 159.542969 325.421875 159.542969 343.0625 C 159.542969 360.699219 173.84375 375 191.480469 375 C 209.121094 375 223.417969 360.699219 223.417969 343.0625 C 223.417969 325.421875 209.121094 311.125 191.480469 311.125 Z M 191.480469 311.125 " clip-rule="nonzero"/></clipPath><clipPath id="11ae9f2a00"><path d="M 159.542969 311.125 L 223.292969 311.125 L 223.292969 374.875 L 159.542969 374.875 Z M 159.542969 311.125 " clip-rule="nonzero"/></clipPath><clipPath id="1fa9808891"><path d="M 191.476562 311.125 C 173.839844 311.125 159.542969 325.421875 159.542969 343.058594 C 159.542969 360.695312 173.839844 374.992188 191.476562 374.992188 C 209.113281 374.992188 223.410156 360.695312 223.410156 343.058594 C 223.410156 325.421875 209.113281 311.125 191.476562 311.125 Z M 191.476562 311.125 " clip-rule="nonzero"/></clipPath><clipPath id="06dcf54c5d"><path d="M 0 155.605469 L 63.710938 155.605469 L 63.710938 219.316406 L 0 219.316406 Z M 0 155.605469 " clip-rule="nonzero"/></clipPath><clipPath id="092fa9681c"><path d="M 31.855469 155.605469 C 14.261719 155.605469 0 169.867188 0 187.460938 C 0 205.054688 14.261719 219.316406 31.855469 219.316406 C 49.449219 219.316406 63.710938 205.054688 63.710938 187.460938 C 63.710938 169.867188 49.449219 155.605469 31.855469 155.605469 Z M 31.855469 155.605469 " clip-rule="nonzero"/></clipPath><clipPath id="68f1dd0bfa"><path d="M 0 155.605469 L 63.703125 155.605469 L 63.703125 219.308594 L 0 219.308594 Z M 0 155.605469 " clip-rule="nonzero"/></clipPath><clipPath id="4a89356663"><path d="M 31.851562 155.605469 C 14.261719 155.605469 0 169.867188 0 187.457031 C 0 205.050781 14.261719 219.308594 31.851562 219.308594 C 49.441406 219.308594 63.703125 205.050781 63.703125 187.457031 C 63.703125 169.867188 49.441406 155.605469 31.851562 155.605469 Z M 31.851562 155.605469 " clip-rule="nonzero"/></clipPath><clipPath id="eae9696151"><path d="M 311.269531 155.585938 L 375 155.585938 L 375 219.316406 L 311.269531 219.316406 Z M 311.269531 155.585938 " clip-rule="nonzero"/></clipPath><clipPath id="34320164f5"><path d="M 343.132812 155.585938 C 325.535156 155.585938 311.269531 169.851562 311.269531 187.453125 C 311.269531 205.050781 325.535156 219.316406 343.132812 219.316406 C 360.734375 219.316406 375 205.050781 375 187.453125 C 375 169.851562 360.734375 155.585938 343.132812 155.585938 Z M 343.132812 155.585938 " clip-rule="nonzero"/></clipPath><clipPath id="c7a7aab855"><path d="M 311.269531 155.585938 L 374.996094 155.585938 L 374.996094 219.3125 L 311.269531 219.3125 Z M 311.269531 155.585938 " clip-rule="nonzero"/></clipPath><clipPath id="dd32c05bcb"><path d="M 343.132812 155.585938 C 325.535156 155.585938 311.269531 169.851562 311.269531 187.449219 C 311.269531 205.046875 325.535156 219.3125 343.132812 219.3125 C 360.730469 219.3125 374.996094 205.046875 374.996094 187.449219 C 374.996094 169.851562 360.730469 155.585938 343.132812 155.585938 Z M 343.132812 155.585938 " clip-rule="nonzero"/></clipPath><clipPath id="479c1d8e7c"><path d="M 273.617188 37.5 L 337.5 37.5 L 337.5 101.382812 L 273.617188 101.382812 Z M 273.617188 37.5 " clip-rule="nonzero"/></clipPath><clipPath id="ef81748420"><path d="M 305.558594 37.5 C 287.917969 37.5 273.617188 51.800781 273.617188 69.441406 C 273.617188 87.082031 287.917969 101.382812 305.558594 101.382812 C 323.199219 101.382812 337.5 87.082031 337.5 69.441406 C 337.5 51.800781 323.199219 37.5 305.558594 37.5 Z M 305.558594 37.5 " clip-rule="nonzero"/></clipPath><clipPath id="23d6df4c1d"><path d="M 273.617188 37.5 L 337.367188 37.5 L 337.367188 101.25 L 273.617188 101.25 Z M 273.617188 37.5 " clip-rule="nonzero"/></clipPath><clipPath id="10cb5fe588"><path d="M 305.554688 37.5 C 287.917969 37.5 273.617188 51.800781 273.617188 69.4375 C 273.617188 87.078125 287.917969 101.378906 305.554688 101.378906 C 323.195312 101.378906 337.496094 87.078125 337.496094 69.4375 C 337.496094 51.800781 323.195312 37.5 305.554688 37.5 Z M 305.554688 37.5 " clip-rule="nonzero"/></clipPath><clipPath id="fa33f53af9"><path d="M 273.78125 273.316406 L 337.5 273.316406 L 337.5 337.035156 L 273.78125 337.035156 Z M 273.78125 273.316406 " clip-rule="nonzero"/></clipPath><clipPath id="452f8822f5"><path d="M 305.640625 273.316406 C 288.042969 273.316406 273.78125 287.582031 273.78125 305.175781 C 273.78125 322.773438 288.042969 337.035156 305.640625 337.035156 C 323.234375 337.035156 337.5 322.773438 337.5 305.175781 C 337.5 287.582031 323.234375 273.316406 305.640625 273.316406 Z M 305.640625 273.316406 " clip-rule="nonzero"/></clipPath><clipPath id="4448031205"><path d="M 273.78125 273.316406 L 337.496094 273.316406 L 337.496094 337.03125 L 273.78125 337.03125 Z M 273.78125 273.316406 " clip-rule="nonzero"/></clipPath><clipPath id="738243af01"><path d="M 305.636719 273.316406 C 288.042969 273.316406 273.78125 287.578125 273.78125 305.175781 C 273.78125 322.769531 288.042969 337.03125 305.636719 337.03125 C 323.230469 337.03125 337.496094 322.769531 337.496094 305.175781 C 337.496094 287.578125 323.230469 273.316406 305.636719 273.316406 Z M 305.636719 273.316406 " clip-rule="nonzero"/></clipPath><clipPath id="b82e997429"><path d="M 37.5 273.519531 L 101.480469 273.519531 L 101.480469 337.5 L 37.5 337.5 Z M 37.5 273.519531 " clip-rule="nonzero"/></clipPath><clipPath id="a57d7ef2e6"><path d="M 69.488281 273.519531 C 51.824219 273.519531 37.5 287.84375 37.5 305.511719 C 37.5 323.175781 51.824219 337.5 69.488281 337.5 C 87.15625 337.5 101.480469 323.175781 101.480469 305.511719 C 101.480469 287.84375 87.15625 273.519531 69.488281 273.519531 Z M 69.488281 273.519531 " clip-rule="nonzero"/></clipPath><clipPath id="85afb41c86"><path d="M 37.5 273.519531 L 101.25 273.519531 L 101.25 337.269531 L 37.5 337.269531 Z M 37.5 273.519531 " clip-rule="nonzero"/></clipPath><clipPath id="7a201a0a4c"><path d="M 69.488281 273.519531 C 51.820312 273.519531 37.5 287.839844 37.5 305.507812 C 37.5 323.171875 51.820312 337.492188 69.488281 337.492188 C 87.152344 337.492188 101.472656 323.171875 101.472656 305.507812 C 101.472656 287.839844 87.152344 273.519531 69.488281 273.519531 Z M 69.488281 273.519531 " clip-rule="nonzero"/></clipPath><clipPath id="73e2f07fb0"><path d="M 37.5 37.5 L 101.480469 37.5 L 101.480469 101.480469 L 37.5 101.480469 Z M 37.5 37.5 " clip-rule="nonzero"/></clipPath><clipPath id="d91ae37a11"><path d="M 69.488281 37.5 C 51.824219 37.5 37.5 51.824219 37.5 69.488281 C 37.5 87.15625 51.824219 101.480469 69.488281 101.480469 C 87.15625 101.480469 101.480469 87.15625 101.480469 69.488281 C 101.480469 51.824219 87.15625 37.5 69.488281 37.5 Z M 69.488281 37.5 " clip-rule="nonzero"/></clipPath><clipPath id="1dd6af3153"><path d="M 37.5 37.5 L 101.25 37.5 L 101.25 101.25 L 37.5 101.25 Z M 37.5 37.5 " clip-rule="nonzero"/></clipPath><clipPath id="9145229406"><path d="M 69.488281 37.5 C 51.820312 37.5 37.5 51.820312 37.5 69.484375 C 37.5 87.152344 51.820312 101.472656 69.488281 101.472656 C 87.152344 101.472656 101.472656 87.152344 101.472656 69.484375 C 101.472656 51.820312 87.152344 37.5 69.488281 37.5 Z M 69.488281 37.5 " clip-rule="nonzero"/></clipPath></defs><g clip-path="url(#280ef026bf)"><g clip-path="url(#ed87c13c67)"><path fill="#082f4b" d="M 154.238281 174.65625 L 220.625 174.65625 L 220.625 267.488281 L 154.238281 267.488281 Z M 154.238281 174.65625 " fill-opacity="1" fill-rule="nonzero"/></g></g><g clip-path="url(#82ba4ab9f5)"><g clip-path="url(#f4ac89a2ce)"><path fill="#082f4b" d="M 159.542969 107.4375 L 215.320312 107.4375 L 215.320312 163.210938 L 159.542969 163.210938 Z M 159.542969 107.4375 " fill-opacity="1" fill-rule="nonzero"/></g></g><g clip-path="url(#9d7d7071fc)"><g clip-path="url(#dc1b81a567)"><path fill="#123d5c" d="M 155.460938 0 L 219.398438 0 L 219.398438 63.9375 L 155.460938 63.9375 Z M 155.460938 0 " fill-opacity="1" fill-rule="nonzero"/></g></g><g clip-path="url(#466cbf624f)"><g clip-path="url(#348c1a6633)"><path stroke-linecap="butt" transform="matrix(0.75, 0, 0, 0.75, 155.462485, 0)" fill="none" stroke-linejoin="miter" d="M 42.61773 0 C 19.081271 0 -0.00206399 19.078126 -0.00206399 42.614586 C -0.00206399 66.156254 19.081271 85.234381 42.61773 85.234381 C 66.15419 85.234381 85.232317 66.156254 85.232317 42.614586 C 85.232317 19.078126 66.15419 0 42.61773 0 Z M 42.61773 0 " stroke="#ffffff" stroke-width="1" stroke-opacity="1" stroke-miterlimit="4"/></g></g><g clip-path="url(#1bfd3116f8)"><g clip-path="url(#5f179565dc)"><path fill="#5b86a4" d="M 159.542969 311.125 L 223.417969 311.125 L 223.417969 375 L 159.542969 375 Z M 159.542969 311.125 " fill-opacity="1" fill-rule="nonzero"/></g></g><g clip-path="url(#11ae9f2a00)"><g clip-path="url(#1fa9808891)"><path stroke-linecap="butt" transform="matrix(0.75, 0, 0, 0.75, 159.542893, 311.124354)" fill="none" stroke-linejoin="miter" d="M 42.578228 0.000861374 C 19.062602 0.000861374 0.000100702 19.063363 0.000100702 42.578989 C 0.000100702 66.094616 19.062602 85.157117 42.578228 85.157117 C 66.093855 85.157117 85.156356 66.094616 85.156356 42.578989 C 85.156356 19.063363 66.093855 0.000861374 42.578228 0.000861374 Z M 42.578228 0.000861374 " stroke="#ffffff" stroke-width="1" stroke-opacity="1" stroke-miterlimit="4"/></g></g><g clip-path="url(#06dcf54c5d)"><g clip-path="url(#092fa9681c)"><path fill="#93b2c9" d="M 0 155.605469 L 63.710938 155.605469 L 63.710938 219.316406 L 0 219.316406 Z M 0 155.605469 " fill-opacity="1" fill-rule="nonzero"/></g></g><g clip-path="url(#68f1dd0bfa)"><g clip-path="url(#4a89356663)"><path stroke-linecap="butt" transform="matrix(0.75, 0, 0, 0.75, 0.0000045, 155.606416)" fill="none" stroke-linejoin="miter" d="M 42.468747 -0.00126324 C 19.01562 -0.00126324 -0.000006 19.014363 -0.000006 42.46749 C -0.000006 65.925824 19.01562 84.936242 42.468747 84.936242 C 65.921873 84.936242 84.9375 65.925824 84.9375 42.46749 C 84.9375 19.014363 65.921873 -0.00126324 42.468747 -0.00126324 Z M 42.468747 -0.00126324 " stroke="#ffffff" stroke-width="1" stroke-opacity="1" stroke-miterlimit="4"/></g></g><g clip-path="url(#eae9696151)"><g clip-path="url(#34320164f5)"><path fill="#305f80" d="M 311.269531 155.585938 L 375 155.585938 L 375 219.316406 L 311.269531 219.316406 Z M 311.269531 155.585938 " fill-opacity="1" fill-rule="nonzero"/></g></g><g clip-path="url(#c7a7aab855)"><g clip-path="url(#dd32c05bcb)"><path stroke-linecap="butt" transform="matrix(0.75, 0, 0, 0.75, 311.269378, 155.585908)" fill="none" stroke-linejoin="miter" d="M 42.484582 0.0000390891 C 19.021038 0.0000390891 0.00020372 19.020874 0.00020372 42.484417 C 0.00020372 65.94796 19.021038 84.968795 42.484582 84.968795 C 65.948125 84.968795 84.968959 65.94796 84.968959 42.484417 C 84.968959 19.020874 65.948125 0.0000390891 42.484582 0.0000390891 Z M 42.484582 0.0000390891 " stroke="#ffffff" stroke-width="1" stroke-opacity="1" stroke-miterlimit="4"/></g></g><g clip-path="url(#479c1d8e7c)"><g clip-path="url(#ef81748420)"><path fill="#204d6e" d="M 273.617188 37.5 L 337.5 37.5 L 337.5 101.382812 L 273.617188 101.382812 Z M 273.617188 37.5 " fill-opacity="1" fill-rule="nonzero"/></g></g><g clip-path="url(#23d6df4c1d)"><g clip-path="url(#10cb5fe588)"><path stroke-linecap="butt" transform="matrix(0.75, 0, 0, 0.75, 273.617036, 37.499998)" fill="none" stroke-linejoin="miter" d="M 42.583538 0.00000328333 C 19.067911 0.00000328333 0.000201823 19.067713 0.000201823 42.583339 C 0.000201823 66.104174 19.067911 85.171884 42.583538 85.171884 C 66.104373 85.171884 85.172082 66.104174 85.172082 42.583339 C 85.172082 19.067713 66.104373 0.00000328333 42.583538 0.00000328333 Z M 42.583538 0.00000328333 " stroke="#ffffff" stroke-width="1" stroke-opacity="1" stroke-miterlimit="4"/></g></g><g clip-path="url(#fa33f53af9)"><g clip-path="url(#452f8822f5)"><path fill="#447292" d="M 273.78125 273.316406 L 337.5 273.316406 L 337.5 337.035156 L 273.78125 337.035156 Z M 273.78125 273.316406 " fill-opacity="1" fill-rule="nonzero"/></g></g><g clip-path="url(#4448031205)"><g clip-path="url(#738243af01)"><path stroke-linecap="butt" transform="matrix(0.75, 0, 0, 0.75, 273.779636, 273.316535)" fill="none" stroke-linejoin="miter" d="M 42.476113 -0.00017147 C 19.017778 -0.00017147 0.00215184 19.015455 0.00215184 42.478998 C 0.00215184 65.937333 19.017778 84.952959 42.476113 84.952959 C 65.934448 84.952959 84.955282 65.937333 84.955282 42.478998 C 84.955282 19.015455 65.934448 -0.00017147 42.476113 -0.00017147 Z M 42.476113 -0.00017147 " stroke="#ffffff" stroke-width="1" stroke-opacity="1" stroke-miterlimit="4"/></g></g><g clip-path="url(#b82e997429)"><g clip-path="url(#a57d7ef2e6)"><path fill="#769bb7" d="M 37.5 273.519531 L 101.480469 273.519531 L 101.480469 337.5 L 37.5 337.5 Z M 37.5 273.519531 " fill-opacity="1" fill-rule="nonzero"/></g></g><g clip-path="url(#85afb41c86)"><g clip-path="url(#7a201a0a4c)"><path stroke-linecap="butt" transform="matrix(0.75, 0, 0, 0.75, 37.500002, 273.519913)" fill="none" stroke-linejoin="miter" d="M 42.651042 -0.000509319 C 19.093749 -0.000509319 -0.00000271667 19.093242 -0.00000271667 42.650535 C -0.00000271667 66.20262 19.093749 85.296371 42.651042 85.296371 C 66.203127 85.296371 85.296878 66.20262 85.296878 42.650535 C 85.296878 19.093242 66.203127 -0.000509319 42.651042 -0.000509319 Z M 42.651042 -0.000509319 " stroke="#ffffff" stroke-width="1" stroke-opacity="1" stroke-miterlimit="4"/></g></g><g clip-path="url(#73e2f07fb0)"><g clip-path="url(#d91ae37a11)"><path fill="#b4cbdb" d="M 37.5 37.5 L 101.480469 37.5 L 101.480469 101.480469 L 37.5 101.480469 Z M 37.5 37.5 " fill-opacity="1" fill-rule="nonzero"/></g></g><g clip-path="url(#1dd6af3153)"><g clip-path="url(#9145229406)"><path stroke-linecap="butt" transform="matrix(0.75, 0, 0, 0.75, 37.500002, 37.499998)" fill="none" stroke-linejoin="miter" d="M 42.651042 0.00000328333 C 19.093749 0.00000328333 -0.00000271667 19.093755 -0.00000271667 42.645839 C -0.00000271667 66.203133 19.093749 85.296884 42.651042 85.296884 C 66.203127 85.296884 85.296878 66.203133 85.296878 42.645839 C 85.296878 19.093755 66.203127 0.00000328333 42.651042 0.00000328333 Z M 42.651042 0.00000328333 " stroke="#ffffff" stroke-width="1" stroke-opacity="1" stroke-miterlimit="4"/></g></g></svg>